<?xml version="1.0" encoding="utf-8"?>
<!-- Generator: Adobe Illustrator 15.1.0, SVG Export Plug-In . SVG Version: 6.00 Build 0)  -->
<!DOCTYPE svg PUBLIC "-//W3C//DTD SVG 1.1//EN" "http://www.w3.org/Graphics/SVG/1.1/DTD/svg11.dtd">
<svg version="1.1" id="zulu-shirts.de" xmlns="http://www.w3.org/2000/svg" xmlns:xlink="http://www.w3.org/1999/xlink" x="0px"
	 y="0px" width="779px" height="599px" viewBox="0 0 779 599" enable-background="new 0 0 779 599" xml:space="preserve">
<g id="Ebene_26">
	<path fill="#D8B78B" d="M516.182,294.615c1.018,7.338,2.471,32.223,10.897,36.275c27.295,13.124,36.869-48.52,39.898-63.366
		c3.016-14.773-1.167-49.536-23.585-41.179c-0.735,0.271-1.266,0.611-1.645,0.987c-9.782-4.219-21.012-3.134-24.582,8.824
		C511.88,253.882,513.686,276.681,516.182,294.615z"/>
	<path fill="#D8B78B" d="M261.537,236.158c-3.57-11.958-14.8-13.043-24.582-8.824c-0.378-0.376-0.908-0.716-1.64-0.987
		c-22.417-8.357-26.605,26.404-23.59,41.179c3.031,14.847,12.605,76.489,39.9,63.366c8.427-4.054,9.88-28.938,10.897-36.275
		C265.019,276.681,266.824,253.882,261.537,236.158z"/>
	<path fill="#7F512E" stroke="#000000" stroke-width="4.252" stroke-miterlimit="10" d="M541.245,262.227
		c0-81.175-67.833-146.979-151.509-146.979c-83.672,0-151.504,59.629-151.504,146.979c0,163.112,67.833,146.977,151.504,146.977
		C473.412,409.203,541.245,425.34,541.245,262.227z"/>
	<path fill="#D8B78B" stroke="#000000" stroke-width="4.252" stroke-miterlimit="10" d="M264.956,312.853
		c0,75.445,56.105,136.604,125.313,136.604c69.198,0,125.305-61.159,125.305-136.604c0-75.449-0.664-170.839-125.85-141.136
		C247.936,142.013,264.956,237.404,264.956,312.853z"/>
	
		<ellipse fill="#FFFFFF" stroke="#000000" stroke-width="4.252" stroke-miterlimit="10" cx="328.931" cy="272.145" rx="35.45" ry="45.351"/>
	<path d="M316.952,287.885c0,12.345,6.402,22.353,14.301,22.353c7.903,0,14.307-10.007,14.307-22.353
		c0-12.343-6.402-22.351-14.307-22.351C323.355,265.535,316.952,275.542,316.952,287.885z"/>
	<path fill="#D8B78B" stroke="#000000" stroke-width="4.252" stroke-miterlimit="10" d="M545.013,390.588
		c0,51.452-69.52,93.164-155.271,93.164c-85.757,0-155.271-41.712-155.271-93.164c0-51.451,69.516-93.162,155.271-93.162
		C475.493,297.425,545.013,339.136,545.013,390.588z"/>
	<path fill="none" stroke="#000000" stroke-width="4.252" stroke-linecap="round" stroke-miterlimit="10" d="M417.073,256.858
		c25.53,26.523,69.82,12.309,69.82,12.309"/>
	<path fill="#FFFFFF" d="M239.482,391.229c14.69,11.513,77.205,56.535,156.008,56.543c0.005,0,0.016,0,0.016,0
		c51.565,0,100.214-19.021,144.68-56.553c-44.439-20.98-93.1-31.613-144.695-31.613
		C317.269,359.607,255.195,384.362,239.482,391.229z"/>
	<path fill="none" stroke="#000000" stroke-width="4.252" stroke-linejoin="bevel" stroke-miterlimit="10" d="M234.47,390.588
		c0,0,155.271,134.642,310.543,0C389.741,314.905,234.47,390.588,234.47,390.588"/>
	<g>
		<path fill="none" stroke="#000000" stroke-width="4.252" stroke-miterlimit="10" d="M234.47,390.588c0,0,155.256,37.021,310.513,0
			"/>
		
			<line fill="none" stroke="#000000" stroke-width="4.252" stroke-miterlimit="10" x1="265.781" y1="378.369" x2="265.781" y2="414.013"/>
		
			<line fill="none" stroke="#000000" stroke-width="4.252" stroke-miterlimit="10" x1="307.098" y1="368.138" x2="307.098" y2="430.257"/>
		
			<line fill="none" stroke="#000000" stroke-width="4.252" stroke-miterlimit="10" x1="345.55" y1="360.894" x2="345.55" y2="443.067"/>
		
			<line fill="none" stroke="#000000" stroke-width="4.252" stroke-miterlimit="10" x1="515.574" y1="378.369" x2="515.574" y2="414.013"/>
		
			<line fill="none" stroke="#000000" stroke-width="4.252" stroke-miterlimit="10" x1="474.253" y1="365.66" x2="474.253" y2="435.312"/>
		
			<line fill="none" stroke="#000000" stroke-width="4.252" stroke-miterlimit="10" x1="435.801" y1="360.894" x2="435.801" y2="446.664"/>
		
			<line fill="none" stroke="#000000" stroke-width="4.252" stroke-miterlimit="10" x1="389.726" y1="357.003" x2="389.726" y2="450.429"/>
	</g>
	<path d="M243.079,328.064c-0.021,0.002-2.501,0.576-5.999-1.567c-5.443-3.332-12.988-12.819-18.063-39.301
		c-2.973-11.056-4.525-20.007-5.07-27.253c-0.109-1.451-0.182-2.831-0.213-4.146c-0.327-13.164,3.025-19.83,6.71-23.192
		c5.869-5.358,14.467-4.125,18.453-3.147c1.329,0.324,2.148,0.623,2.18,0.637l1.863-4.979c-0.644-0.239-15.796-5.772-26.045,3.536
		c-8.936,8.114-10.814,24.602-5.656,48.95c0.732,3.464,1.609,7.088,2.621,10.871c4.333,22.586,11.214,36.907,20.446,42.56
		c3.222,1.975,6.024,2.416,7.888,2.416c1.323,0,2.179-0.223,2.371-0.28L243.079,328.064z"/>
	<path d="M562.111,228.649c-10.243-9.307-25.401-3.775-26.045-3.536l1.862,4.979c0.124-0.053,12.813-4.627,20.632,2.512
		c0.369,0.334,0.731,0.706,1.096,1.109c5.019,5.675,8.713,18.456,1.921,47.215c-0.479,2.011-1.007,4.097-1.588,6.269l0,0
		c-0.017,0.067-0.031,0.125-0.047,0.192c-4.962,25.938-12.383,35.491-17.737,38.938c-3.638,2.34-6.232,1.751-6.278,1.738
		l-1.483,5.101c0.196,0.058,1.048,0.28,2.37,0.28c1.863,0,4.672-0.444,7.894-2.416c9.242-5.662,16.123-20.01,20.41-42.453
		C573.319,258.072,572.308,237.91,562.111,228.649z"/>
	<path d="M286.232,221.125c0.14,2.986,2.838-2.387,4.696-4.097c3.145-2.898,7.515-5.249,11.919-7.34
		c11.105-5.272,24.535-7.269,37.108-7.53c2.589-0.055,3.139-16.24-2.574-16.118c-27.783,0.573-58.301,12.39-57.403,31.69
		c0.13,2.717,0.254,7.775,3.601,9.59C286.092,228.684,286.248,221.469,286.232,221.125L286.232,221.125z"/>
	<path d="M484.346,242.38c-0.141,2.986-2.844-2.387-4.695-4.097c-3.146-2.897-7.521-5.249-11.921-7.34
		c-11.104-5.272-24.538-7.268-37.106-7.53c-2.595-0.054-3.146-16.239,2.573-16.118c27.782,0.574,58.296,12.39,57.397,31.69
		c-0.125,2.717-0.249,7.776-3.602,9.59C484.485,249.938,484.325,242.723,484.346,242.38L484.346,242.38z"/>
</g>
</svg>
