<?xml version="1.0" encoding="utf-8"?>
<!-- Generator: Adobe Illustrator 15.1.0, SVG Export Plug-In . SVG Version: 6.00 Build 0)  -->
<!DOCTYPE svg PUBLIC "-//W3C//DTD SVG 1.1//EN" "http://www.w3.org/Graphics/SVG/1.1/DTD/svg11.dtd">
<svg version="1.1" id="zulu-shirts.de" xmlns="http://www.w3.org/2000/svg" xmlns:xlink="http://www.w3.org/1999/xlink" x="0px"
	 y="0px" width="779px" height="599px" viewBox="0 0 779 599" enable-background="new 0 0 779 599" xml:space="preserve">
<g id="Ebene_26">
	<path fill="#D8B78B" d="M515.273,293.331c1.011,7.286,2.453,31.993,10.819,36.016c27.102,13.029,36.605-48.172,39.614-62.912
		c2.993-14.668-1.159-49.183-23.416-40.884c-0.731,0.271-1.257,0.607-1.633,0.98c-9.712-4.188-20.861-3.112-24.405,8.761
		C511.004,252.891,512.797,275.526,515.273,293.331z"/>
	<path fill="#D8B78B" d="M262.453,235.293c-3.545-11.873-14.694-12.949-24.405-8.761c-0.376-0.374-0.902-0.711-1.628-0.98
		c-22.257-8.298-26.415,26.216-23.421,40.884c3.009,14.74,12.514,75.941,39.614,62.912c8.367-4.023,9.81-28.73,10.819-36.016
		C265.91,275.526,267.703,252.891,262.453,235.293z"/>
	<path fill="#7F512E" stroke="#000000" stroke-width="4.252" stroke-miterlimit="10" d="M540.159,261.174
		c0-80.594-67.349-145.927-150.425-145.927c-83.072,0-150.42,59.203-150.42,145.927c0,161.945,67.348,145.925,150.42,145.925
		C472.812,407.099,540.159,423.119,540.159,261.174z"/>
	<path fill="#D8B78B" stroke="#000000" stroke-width="4.252" stroke-miterlimit="10" d="M265.848,311.439
		c0,74.906,55.704,135.627,124.417,135.627c68.703,0,124.407-60.723,124.407-135.627c0-74.91-0.659-169.617-124.948-140.126
		C248.949,141.823,265.848,236.53,265.848,311.439z"/>
	
		<ellipse fill="#FFFFFF" stroke="#000000" stroke-width="4.252" stroke-miterlimit="10" cx="329.365" cy="271.022" rx="35.196" ry="45.026"/>
	
		<ellipse fill="#FFFFFF" stroke="#000000" stroke-width="4.252" stroke-miterlimit="10" cx="450.704" cy="271.022" rx="35.194" ry="45.026"/>
	<path d="M328.023,291.924c0,12.257,6.356,22.193,14.198,22.193c7.847,0,14.204-9.936,14.204-22.193
		c0-12.254-6.357-22.189-14.204-22.189C334.38,269.735,328.023,279.67,328.023,291.924z"/>
	<path d="M422.98,291.924c0,12.257,6.357,22.193,14.204,22.193c7.848,0,14.204-9.936,14.204-22.193
		c0-12.254-6.356-22.189-14.204-22.189C429.338,269.735,422.98,279.67,422.98,291.924z"/>
	<ellipse fill="#D8B78B" cx="389.74" cy="388.616" rx="154.16" ry="92.497"/>
	<path d="M543.898,388.617c0-4.701-0.593-9.318-1.721-13.83c0,0.006-0.011,0.006-0.011,0.012c0.231-0.283,0.418-0.611,0.521-0.986
		c0.376-1.41-0.458-2.857-1.864-3.236c-0.277-0.074-5.733-1.508-15.384-3.525v-25.164c0-1.457-1.181-2.639-2.639-2.639
		s-2.638,1.182-2.638,2.639v24.086c-7.167-1.426-16.054-3.041-26.354-4.645v-28.121c13.317,3.002,21.071,5.41,21.376,5.508
		c1.406,0.438,2.881-0.326,3.322-1.715c0.443-1.391-0.324-2.881-1.715-3.322c-0.66-0.213-35.91-11.182-87.596-15.791
		c-0.182-0.043-0.352-0.111-0.546-0.111c-0.067,0-0.13,0.033-0.196,0.039c-11.731-1.029-24.313-1.711-37.512-1.881
		c-0.283-0.107-0.588-0.186-0.912-0.186c-0.278,0-0.525,0.076-0.778,0.156c-22.412-0.211-46.596,1.137-71.547,4.961
		c-0.083-0.008-0.155-0.049-0.237-0.049c-0.401,0-0.772,0.105-1.113,0.266c-10.736,1.682-21.603,3.814-32.535,6.502
		c-0.186,0.041-0.371,0.063-0.536,0.139c-7.105,1.76-14.225,3.713-21.355,5.947c-1.391,0.439-2.169,1.924-1.731,3.316
		c0.355,1.131,1.396,1.855,2.524,1.855c0.263,0,0.525-0.039,0.788-0.121c6.085-1.91,12.159-3.582,18.228-5.135v27.664
		c-7.439,1.285-14.92,2.781-22.417,4.42v-23.783h-5.276v24.93c-5.09,1.17-10.18,2.41-15.276,3.756
		c-1.406,0.375-2.246,1.82-1.875,3.229c0.077,0.293,0.309,0.467,0.469,0.705c0,0,0-0.002-0.005-0.006
		c-1.174,4.602-1.782,9.314-1.782,14.117c0,11.705,3.658,22.891,10.268,33.199h0.005c-0.19,0.285-0.325,0.613-0.392,0.969
		c-0.263,1.438,0.69,2.816,2.128,3.078c2.153,0.395,4.307,0.717,6.46,1.09v8.383h5.276v-7.494
		c7.491,1.227,14.972,2.357,22.417,3.318v21.186c-0.974,0.203-1.792,0.922-2.04,1.947c-0.345,1.422,0.531,2.854,1.953,3.199
		c23.571,5.695,47.085,8.883,69.486,10.428c0.248,0.08,0.5,0.156,0.773,0.156c0.148,0,0.272-0.059,0.412-0.082
		c11.493,0.766,22.715,1.131,33.452,1.131c63.505,0,111.125-11.459,111.836-11.639c1.417-0.348,2.287-1.785,1.938-3.205
		c-0.346-1.418-1.783-2.293-3.205-1.936c-0.093,0.021-0.994,0.236-2.534,0.576v-21.725c11.011-1.268,19.934-2.508,26.354-3.471v8.85
		h5.274v-9.668c3.869-0.621,6.038-1.016,6.208-1.047c1.434-0.27,2.382-1.648,2.113-3.088c-0.047-0.264-0.171-0.49-0.289-0.717
		C540.18,411.683,543.898,400.414,543.898,388.617z M533.034,421.461c-0.042-0.043-0.083-0.09-0.129-0.135
		C532.951,421.371,532.992,421.414,533.034,421.461z M541.102,375.537c-0.098,0.039-0.186,0.07-0.282,0.1
		C540.916,375.609,541.009,375.576,541.102,375.537z M462.961,327.349c9.69,1.525,18.295,3.156,25.574,4.705v28.48
		c-7.831-1.156-16.373-2.279-25.574-3.305V327.349z M431.291,323.375c9.413,0.891,18.248,1.98,26.394,3.174v30.109
		c-8.336-0.865-17.16-1.625-26.394-2.246V323.375z M392.671,321.232c11.669,0.193,22.844,0.781,33.344,1.662v31.178
		c-10.633-0.635-21.788-1.051-33.344-1.191V321.232z M354.551,322.14c11.269-0.746,22.252-1.047,32.845-0.99v31.662
		c-10.639-0.049-21.624,0.18-32.845,0.691V322.14z M320.109,325.832c9.87-1.475,19.608-2.541,29.166-3.289v31.188
		c-9.563,0.514-19.306,1.281-29.166,2.289V325.832z M287.018,332.228c9.335-2.248,18.62-4.051,27.816-5.549v29.92
		c-9.186,1.021-18.465,2.285-27.816,3.805V332.228z M238.197,375.345c0.386,0.215,0.793,0.422,1.252,0.422
		C238.975,375.767,238.563,375.599,238.197,375.345z M246.878,420.941c0.098-0.053,0.186-0.088,0.289-0.127
		C247.068,420.851,246.971,420.892,246.878,420.941z M314.097,458.494c-8.97-1.4-18.017-3.139-27.079-5.219v-21.477
		c9.099,1.102,18.13,2.02,27.079,2.773V458.494z M349.275,462.5c-9.789-0.725-19.784-1.785-29.903-3.23v-24.25
		c10.124,0.779,20.098,1.34,29.903,1.732V462.5L349.275,462.5z M387.396,463.838c-10.542,0.031-21.541-0.268-32.845-0.979v-25.912
		c10.232,0.35,20.269,0.523,29.996,0.523c0.958,0,1.896-0.008,2.849-0.012V463.838z M426.015,462.33
		c-10.35,0.768-21.535,1.301-33.344,1.455v-26.354c11.604-0.102,22.747-0.42,33.344-0.885V462.33z M457.685,459.082
		c-7.86,1.037-16.724,2.023-26.394,2.832v-25.611c9.289-0.457,18.109-1.023,26.394-1.656V459.082z M488.535,454.029
		c-5.755,1.154-14.503,2.754-25.574,4.33v-24.131c9.314-0.764,17.883-1.598,25.574-2.438V454.029z M531.622,420.67
		c-0.304-0.055-0.623-0.074-0.948-0.01C530.999,420.595,531.318,420.611,531.622,420.67z M532.421,420.972
		c-0.129-0.07-0.263-0.125-0.402-0.174C532.158,420.851,532.292,420.898,532.421,420.972z"/>
	<path fill="#FFFFFF" d="M392.671,352.879c11.556,0.143,22.71,0.557,33.344,1.193v-31.178c-10.5-0.881-21.674-1.469-33.344-1.662
		V352.879z M320.109,356.019c9.86-1.006,19.604-1.775,29.166-2.287v-31.189c-9.558,0.748-19.296,1.814-29.166,3.291V356.019z
		 M254.049,432.549v-5.596c-1.757-0.305-3.514-0.584-5.271-0.889C250.412,428.269,252.148,430.437,254.049,432.549z
		 M238.773,370.574c5.096-1.348,10.186-2.586,15.276-3.756v-22.131c-7.238,8.031-12.535,16.785-15.559,26.025
		C238.588,370.676,238.67,370.603,238.773,370.574z M287.018,360.404c9.351-1.52,18.63-2.783,27.816-3.805v-29.92
		c-9.196,1.498-18.48,3.301-27.816,5.549V360.404z M354.551,353.504c11.221-0.512,22.206-0.74,32.845-0.691V321.15
		c-10.593-0.059-21.576,0.244-32.845,0.988V353.504z M520.164,341.888c0-0.723,0.288-1.373,0.757-1.852
		c-0.875-0.85-1.771-1.689-2.694-2.523c-0.612,1.035-1.828,1.58-3.039,1.203c-0.305-0.098-8.059-2.506-21.376-5.508v28.121
		c10.3,1.602,19.187,3.217,26.354,4.645L520.164,341.888L520.164,341.888z M525.439,344.697v22.354
		c9.65,2.02,15.106,3.451,15.385,3.525c0.052,0.016,0.093,0.055,0.145,0.072C537.943,361.435,532.657,352.709,525.439,344.697z
		 M462.961,357.23c9.201,1.025,17.743,2.148,25.574,3.305v-28.48c-7.279-1.549-15.884-3.18-25.574-4.707V357.23z M431.291,354.412
		c9.232,0.621,18.058,1.381,26.394,2.246v-30.109c-8.146-1.193-16.979-2.283-26.394-3.174V354.412z M262.726,338.842
		c-0.752,0-1.375-0.4-1.875-0.951c-1.432,1.311-2.808,2.643-4.137,3.998h2.612v23.783c7.496-1.639,14.977-3.135,22.417-4.42v-27.664
		c-6.069,1.555-12.143,3.227-18.228,5.135C263.251,338.804,262.988,338.842,262.726,338.842z M520.164,427.728
		c-6.42,0.963-15.343,2.203-26.354,3.471v21.725c1.54-0.34,2.441-0.555,2.534-0.576c1.2-0.303,2.37,0.303,2.927,1.346
		c8.502-5.148,16.009-10.889,22.313-17.115h-1.422L520.164,427.728L520.164,427.728z M431.291,461.914
		c9.67-0.809,18.532-1.795,26.394-2.832v-24.438c-8.283,0.635-17.104,1.201-26.394,1.656V461.914z M462.961,458.359
		c11.071-1.576,19.819-3.176,25.574-4.33v-22.238c-7.691,0.84-16.26,1.674-25.574,2.438V458.359z M525.439,432.537
		c1.906-2.119,3.653-4.297,5.286-6.512c-0.983,0.172-2.721,0.471-5.286,0.885V432.537z M259.325,435.336h-2.623
		c6.523,6.672,14.385,12.814,23.391,18.283c0.381-0.625,0.927-1.125,1.648-1.273V431.16c-7.444-0.961-14.925-2.092-22.417-3.318
		L259.325,435.336L259.325,435.336z M287.018,453.275c9.063,2.08,18.109,3.816,27.079,5.219v-23.922
		c-8.948-0.752-17.979-1.672-27.079-2.773V453.275z M392.671,463.785c11.809-0.154,22.994-0.688,33.344-1.455v-25.783
		c-10.597,0.467-21.74,0.785-33.344,0.887V463.785z M319.373,459.269c10.119,1.445,20.114,2.508,29.903,3.23v-25.748
		c-9.806-0.395-19.779-0.953-29.903-1.732V459.269L319.373,459.269z M354.551,436.947v25.912c11.304,0.711,22.303,1.01,32.845,0.979
		v-26.379c-0.952,0.004-1.891,0.012-2.849,0.012C374.819,437.47,364.783,437.297,354.551,436.947z"/>
	<path d="M389.739,483.752c-86.462,0-156.798-42.678-156.798-95.135s70.336-95.133,156.798-95.133
		c86.457,0,156.798,42.676,156.798,95.133S476.196,483.752,389.739,483.752z M389.739,298.76
		c-83.552,0-151.522,40.31-151.522,89.857c0,49.551,67.971,89.859,151.522,89.859c83.551,0,151.521-40.311,151.521-89.859
		C541.262,339.068,473.29,298.76,389.739,298.76z"/>
	<path d="M244.127,326.541c-0.021,0.004-2.483,0.572-5.956-1.555c-5.404-3.309-12.896-12.73-17.935-39.021
		c-2.952-10.976-4.492-19.862-5.033-27.059c-0.108-1.439-0.181-2.81-0.211-4.116c-0.325-13.07,3.004-19.688,6.662-23.026
		c5.827-5.319,14.364-4.097,18.321-3.125c1.319,0.321,2.133,0.617,2.164,0.631l1.85-4.943c-0.639-0.237-15.683-5.73-25.858,3.511
		c-8.872,8.056-10.737,24.427-5.616,48.601c0.727,3.438,1.597,7.038,2.602,10.793c4.302,22.423,11.134,36.644,20.299,42.253
		c3.199,1.961,5.981,2.398,7.831,2.398c1.314,0,2.164-0.223,2.354-0.277L244.127,326.541z"/>
	<path d="M560.876,227.838c-10.171-9.239-25.22-3.748-25.858-3.511l1.851,4.943c0.123-0.051,12.72-4.593,20.483,2.494
		c0.366,0.333,0.728,0.7,1.087,1.103c4.982,5.634,8.65,18.323,1.906,46.876c-0.474,1.997-0.999,4.068-1.576,6.224l0,0
		c-0.016,0.067-0.03,0.124-0.047,0.191c-4.925,25.751-12.293,35.238-17.608,38.66c-3.611,2.322-6.188,1.738-6.234,1.725
		l-1.474,5.064c0.195,0.057,1.041,0.279,2.354,0.279c1.851,0,4.638-0.441,7.837-2.398c9.176-5.621,16.007-19.867,20.264-42.15
		C572.004,257.051,570.999,237.032,560.876,227.838z"/>
	<path d="M304.344,219.235c-1.128,2.746,3.555-0.956,5.94-1.715c4.05-1.288,8.97-1.569,13.808-1.604
		c12.205-0.085,25.126,3.756,36.549,8.794c2.354,1.038,9.646-13.295,4.446-15.582c-25.24-11.144-57.652-13.315-64.947,4.432
		c-1.024,2.496-3.034,7.102-0.782,10.139C301.047,225.977,304.215,219.552,304.344,219.235L304.344,219.235z"/>
	<path d="M476.846,219.235c1.123,2.746-3.561-0.956-5.945-1.715c-4.045-1.288-8.965-1.569-13.808-1.605
		c-12.206-0.083-25.127,3.758-36.549,8.797c-2.354,1.038-9.639-13.295-4.446-15.585c25.239-11.141,57.656-13.313,64.946,4.432
		c1.025,2.499,3.035,7.104,0.783,10.142C480.143,225.977,476.969,219.552,476.846,219.235L476.846,219.235z"/>
	<path fill="#CC0033" d="M477.608,412.092c0,8.646-39.197,15.654-87.556,15.654c-48.347,0-87.549-7.01-87.549-15.654
		s39.202-15.654,87.549-15.654C438.411,396.437,477.608,403.447,477.608,412.092z"/>
</g>
</svg>
